# xmcd
#
# Track frame offsets:
#	150
#	11021
#	22607
#	37043
#	54494
#	68039
#	80982
#	92650
#	113971
#	129653
#	145096
#
# Disc length: 2116 seconds
#
# Revision: 0
# Processed by: cddbd v1.5PL3 Copyright (c) Steve Scherf et al.
# Submitted via: dBpowerAMP V4.0
#
DISCID=8f08420b
DTITLE=Reigning Sound - Break Up, Break Down
DYEAR=1900
DGENRE=AlternRock
TTITLE0=Since When
TTITLE1=I Don't Care
TTITLE2=You Don't Hear the Music
TTITLE3=Goodbye
TTITLE4=As Long
TTITLE5=Want You
TTITLE6=So Goes Love
TTITLE7=Take A Ride
TTITLE8=Waiting for the Day
TTITLE9=So Sad
TTITLE10=I'm So Thankful
EXTD=
EXTT0=
EXTT1=
EXTT2=
EXTT3=
EXTT4=
EXTT5=
EXTT6=
EXTT7=
EXTT8=
EXTT9=
EXTT10=
PLAYORDER=
